<?xml version="1.0" standalone="no"?>
<!DOCTYPE svg PUBLIC "-//W3C//DTD SVG 20010904//EN"
 "http://www.w3.org/TR/2001/REC-SVG-20010904/DTD/svg10.dtd">
<svg version="1.0" xmlns="http://www.w3.org/2000/svg"
 width="150.000000pt" height="149.000000pt" viewBox="0 0 150.000000 149.000000"
 preserveAspectRatio="xMidYMid meet">

<g transform="translate(0.000000,149.000000) scale(0.100000,-0.100000)"
fill="#000000" stroke="none">
<path d="M0 1178 l0 -311 23 21 c23 21 30 22 285 22 l262 0 0 260 0 261 25 24
c23 24 29 25 152 25 138 -1 154 -6 173 -54 6 -16 10 -127 10 -272 l0 -244 256
0 c266 0 288 -3 304 -43 5 -13 9 104 9 301 l1 322 -750 0 -750 0 0 -312z"/>
<path d="M1473 602 l-21 -27 -264 0 -263 0 3 -230 c3 -256 0 -286 -30 -315
-19 -18 -36 -20 -150 -20 -124 0 -130 1 -153 25 l-25 24 0 255 0 255 -259 3
c-259 3 -259 3 -285 27 l-26 24 0 -311 0 -312 750 0 750 0 0 315 c0 173 -1
315 -2 314 -2 0 -13 -12 -25 -27z"/>
</g>
</svg>
